<?xml version="1.0" encoding="UTF-8" standalone="no"?>
<!DOCTYPE svg PUBLIC "-//W3C//DTD SVG 1.1//EN"
 "http://www.w3.org/Graphics/SVG/1.1/DTD/svg11.dtd">
<!-- Generated by graphviz version 2.26.3 (20100126.1600)
 -->
<!-- Title: G Pages: 1 -->
<svg width="138pt" height="206pt"
 viewBox="0.00 0.00 138.00 206.00" xmlns="http://www.w3.org/2000/svg" xmlns:xlink="http://www.w3.org/1999/xlink">
<g id="graph1" class="graph" transform="scale(1 1) rotate(0) translate(4 202)">
<title>G</title>
<polygon fill="white" stroke="white" points="-4,5 -4,-202 135,-202 135,5 -4,5"/>
<g id="graph2" class="cluster"><title>cluster_global</title>
<polyline fill="none" stroke="gray" points="20,-8 110,-8 "/>
<path fill="none" stroke="gray" d="M110,-8C116,-8 122,-14 122,-20"/>
<polyline fill="none" stroke="gray" points="122,-20 122,-178 "/>
<path fill="none" stroke="gray" d="M122,-178C122,-184 116,-190 110,-190"/>
<polyline fill="none" stroke="gray" points="110,-190 20,-190 "/>
<path fill="none" stroke="gray" d="M20,-190C14,-190 8,-184 8,-178"/>
<polyline fill="none" stroke="gray" points="8,-178 8,-20 "/>
<path fill="none" stroke="gray" d="M8,-20C8,-14 14,-8 20,-8"/>
<text text-anchor="middle" x="65" y="-176.1" font-family="Times Roman,serif" font-size="11.00" fill="gray">global</text>
</g>
<!-- \\Article -->
<g id="node2" class="node"><title>\\Article</title>
<a xlink:href="Article.html" xlink:title="Article" target="_parent">
<polygon fill="none" stroke="black" points="97,-160 33,-160 33,-124 97,-124 97,-160"/>
<text text-anchor="middle" x="65" y="-139.1" font-family="Courier,monospace" font-size="11.00">Article</text>
</a>
</g>
<!-- \\ListeArticle -->
<g id="node3" class="node"><title>\\ListeArticle</title>
<a xlink:href="ListeArticle.html" xlink:title="ListeArticle" target="_parent">
<polygon fill="none" stroke="black" points="114,-106 16,-106 16,-70 114,-70 114,-106"/>
<text text-anchor="middle" x="65" y="-85.1" font-family="Courier,monospace" font-size="11.00">ListeArticle</text>
</a>
</g>
<!-- \\Utilisateur -->
<g id="node4" class="node"><title>\\Utilisateur</title>
<a xlink:href="Utilisateur.html" xlink:title="Utilisateur" target="_parent">
<polygon fill="none" stroke="black" points="110,-52 20,-52 20,-16 110,-16 110,-52"/>
<text text-anchor="middle" x="65" y="-31.1" font-family="Courier,monospace" font-size="11.00">Utilisateur</text>
</a>
</g>
</g>
</svg>
